<svg width="20" height="20" viewBox="0 0 20 20" fill="none" xmlns="http://www.w3.org/2000/svg">
<ellipse cx="10.0002" cy="10" rx="10.0002" ry="10" fill="url(#paint0_linear_44_12730)"/>
<ellipse cx="10.0002" cy="10" rx="10.0002" ry="10" fill="black" fill-opacity="0.1"/>
<path d="M10 0.381836C15.312 0.381836 19.6182 4.6881 19.6182 10C19.6182 15.3119 15.312 19.6182 10 19.6182C4.68807 19.6181 0.381836 15.3118 0.381836 10C0.381836 4.68816 4.68807 0.381928 10 0.381836Z" stroke="url(#paint1_linear_44_12730)" stroke-opacity="0.3" stroke-width="0.763889"/>
<g filter="url(#filter0_d_44_12730)">
<path d="M13.2386 14.4778V12.3823H10.0872L11.6428 10.7903C12.6218 9.79698 13.1045 8.80366 13.1045 7.79673C13.1045 6.87144 12.7961 6.13665 12.1658 5.59237C11.549 5.03447 10.798 4.76233 9.92633 4.76233C8.5719 4.76233 7.33817 5.48351 6.76154 6.84423L8.5719 7.91919C8.86693 7.22523 9.32287 6.88505 9.95315 6.88505C10.5834 6.88505 10.9589 7.29326 10.9589 7.89198C10.9589 8.35462 10.6371 8.91251 10.0068 9.57927L6.85541 12.8994V14.4778H13.2386Z" fill="white"/>
</g>
<defs>
<filter id="filter0_d_44_12730" x="5.17423" y="3.17503" width="9.65172" height="12.8901" filterUnits="userSpaceOnUse" color-interpolation-filters="sRGB">
<feFlood flood-opacity="0" result="BackgroundImageFix"/>
<feColorMatrix in="SourceAlpha" type="matrix" values="0 0 0 0 0 0 0 0 0 0 0 0 0 0 0 0 0 0 127 0" result="hardAlpha"/>
<feOffset/>
<feGaussianBlur stdDeviation="0.793651"/>
<feColorMatrix type="matrix" values="0 0 0 0 0.2375 0 0 0 0 0.2375 0 0 0 0 0.2375 0 0 0 0.6 0"/>
<feBlend mode="normal" in2="BackgroundImageFix" result="effect1_dropShadow_44_12730"/>
<feBlend mode="normal" in="SourceGraphic" in2="effect1_dropShadow_44_12730" result="shape"/>
</filter>
<linearGradient id="paint0_linear_44_12730" x1="5.00009" y1="1.11111" x2="13.8889" y2="18.889" gradientUnits="userSpaceOnUse">
<stop stop-color="#D3D3D3"/>
<stop offset="1" stop-color="#969696"/>
</linearGradient>
<linearGradient id="paint1_linear_44_12730" x1="16.7077" y1="17.3305" x2="4.14564" y2="-0.788232" gradientUnits="userSpaceOnUse">
<stop stop-color="#8E8E8E"/>
<stop offset="1" stop-color="#919191" stop-opacity="0.3"/>
</linearGradient>
</defs>
</svg>
