<svg width="12" height="12" viewBox="0 0 12 12" fill="none" xmlns="http://www.w3.org/2000/svg">
<g clip-path="url(#clip0_48_14213)">
<g filter="url(#filter0_d_48_14213)">
<path fill-rule="evenodd" clip-rule="evenodd" d="M5.79381 10.4121C5.92703 10.3638 6.073 10.3638 6.20622 10.4121L7.16185 10.759C7.42219 10.8535 7.71344 10.7589 7.86864 10.5295L8.43595 9.69109C8.51557 9.57343 8.63409 9.48757 8.77071 9.44859L9.74609 9.1703C10.0133 9.09406 10.1941 8.84543 10.1843 8.56772L10.1487 7.561C10.1436 7.41845 10.1892 7.2787 10.2772 7.16649L10.8999 6.37309C11.0718 6.15402 11.0718 5.84585 10.8999 5.62679L10.2772 4.83339C10.1892 4.72117 10.1436 4.58143 10.1487 4.43887L10.1843 3.43216C10.1941 3.15444 10.0133 2.90582 9.74609 2.82957L8.77071 2.55129C8.63409 2.51231 8.51557 2.42645 8.43595 2.30878L7.86864 1.47035C7.71344 1.24096 7.42219 1.14642 7.16185 1.24091L6.20622 1.58775C6.073 1.6361 5.92703 1.6361 5.79381 1.58775L4.83818 1.24091C4.57784 1.14642 4.28659 1.24096 4.13139 1.47035L3.56408 2.30878C3.48446 2.42645 3.36594 2.51231 3.22932 2.55129L2.25394 2.82957C1.98672 2.90582 1.80591 3.15444 1.81573 3.43216L1.85135 4.43887C1.85639 4.58143 1.81085 4.72117 1.72279 4.83339L1.10013 5.62679C0.928212 5.84585 0.928212 6.15402 1.10013 6.37309L1.72279 7.16649C1.81085 7.2787 1.85639 7.41845 1.85135 7.561L1.81573 8.56772C1.80591 8.84543 1.98672 9.09406 2.25394 9.1703L3.22932 9.44859C3.36594 9.48757 3.48446 9.57343 3.56408 9.69109L4.13139 10.5295C4.28659 10.7589 4.57784 10.8535 4.83818 10.759L5.79381 10.4121ZM8.21069 4.26249C7.96484 4.03633 7.57988 4.04922 7.35014 4.29158L5.33606 6.41614L4.4949 5.52791L4.43947 5.4772L4.43243 5.47168C4.20017 5.28936 3.86184 5.29693 3.63805 5.50269C3.39129 5.72958 3.37783 6.11135 3.60831 6.35462L4.89459 7.71242L4.94769 7.76129L4.95441 7.76662C5.19869 7.96078 5.56012 7.94185 5.78122 7.70861L8.24413 5.11047L8.29171 5.05248L8.29683 5.04517C8.46645 4.80308 8.43503 4.46886 8.21069 4.26249Z" fill="white"/>
</g>
</g>
<defs>
<filter id="filter0_d_48_14213" x="-3.39245" y="-2.06814" width="18.7849" height="18.318" filterUnits="userSpaceOnUse" color-interpolation-filters="sRGB">
<feFlood flood-opacity="0" result="BackgroundImageFix"/>
<feColorMatrix in="SourceAlpha" type="matrix" values="0 0 0 0 0 0 0 0 0 0 0 0 0 0 0 0 0 0 127 0" result="hardAlpha"/>
<feOffset dy="1.09091"/>
<feGaussianBlur stdDeviation="2.18182"/>
<feColorMatrix type="matrix" values="0 0 0 0 0 0 0 0 0 0 0 0 0 0 0 0 0 0 0.2 0"/>
<feBlend mode="normal" in2="BackgroundImageFix" result="effect1_dropShadow_48_14213"/>
<feBlend mode="normal" in="SourceGraphic" in2="effect1_dropShadow_48_14213" result="shape"/>
</filter>
<clipPath id="clip0_48_14213">
<rect width="12" height="12" fill="white"/>
</clipPath>
</defs>
</svg>
